# ProBuilder 4.5.2
# https://unity3d.com/unity/features/worldbuilding/probuilder
# 2023-04-14 PM 12:43:11

mtllib ./LowSphere1.mtl
o LowSphere1

g Icosphere
v 0.2596738 0.4201611 0
v 0.4201611 0 0.2596738
v 0 0.2596738 0.4201611
v -0.2596738 0.4201611 0
v 0 0.2596738 -0.4201611
v 0.4201611 0 -0.2596738
v -0.4201611 0 0.2596738
v 0 -0.2596738 0.4201611
v 0.2596738 -0.4201611 0
v 0 -0.2596738 -0.4201611
v -0.4201611 0 -0.2596738
v -0.2596738 -0.4201611 0

vt 0.01035461 0.05817048

vn 0.28517 0.28517 0.28517
vn 0 0.4614148 0.1762448
vn 0 0.4614148 -0.1762448
vn 0.28517 0.28517 -0.28517
vn 0.4614148 0.1762448 0
vn -0.28517 0.28517 0.28517
vn 0.1762448 0 0.4614148
vn 0.4614148 -0.1762448 0
vn 0.1762448 0 -0.4614148
vn -0.28517 0.28517 -0.28517
vn -0.28517 -0.28517 0.28517
vn 0 -0.4614148 0.1762448
vn 0 -0.4614148 -0.1762448
vn -0.28517 -0.28517 -0.28517
vn -0.4614148 -0.1762448 0
vn -0.1762448 0 0.4614148
vn 0.28517 -0.28517 0.28517
vn 0.28517 -0.28517 -0.28517
vn -0.1762448 0 -0.4614148
vn -0.4614148 0.1762448 0

usemtl SphereOne
f 3/1/1 2/1/1 1/1/1
f 4/1/2 3/1/2 1/1/2
f 5/1/3 4/1/3 1/1/3
f 6/1/4 5/1/4 1/1/4
f 2/1/5 6/1/5 1/1/5
f 7/1/6 3/1/6 4/1/6
f 8/1/7 2/1/7 3/1/7
f 9/1/8 6/1/8 2/1/8
f 10/1/9 5/1/9 6/1/9
f 11/1/10 4/1/10 5/1/10
f 8/1/11 7/1/11 12/1/11
f 9/1/12 8/1/12 12/1/12
f 10/1/13 9/1/13 12/1/13
f 11/1/14 10/1/14 12/1/14
f 7/1/15 11/1/15 12/1/15
f 3/1/16 7/1/16 8/1/16
f 2/1/17 8/1/17 9/1/17
f 6/1/18 9/1/18 10/1/18
f 5/1/19 10/1/19 11/1/19
f 4/1/20 11/1/20 7/1/20

